<svg xmlns="http://www.w3.org/2000/svg" xmlns:xlink="http://www.w3.org/1999/xlink" contentStyleType="text/css" data-diagram-type="DESCRIPTION" height="1080px" preserveAspectRatio="none" style="width:1204px;height:1080px;background:#FFFFFF;" version="1.1" viewBox="0 0 1204 1080" width="1204px" zoomAndPan="magnify"><?plantuml 1.2026.6?><defs/><g><g class="title" data-source-line="1"><text fill="#000000" font-family="Arial" font-size="14" font-weight="700" lengthAdjust="spacing" textLength="298.6963" x="449.2219" y="23.1318">BioIT Genome Pipeline - Batch-First Runtime</text></g><!--cluster Genome Sources--><g class="cluster" data-qualified-name="Genome Sources" data-source-line="19" id="ent0001"><rect fill="none" height="174" rx="6" ry="6" style="stroke:#9CA3AF;stroke-width:1;" width="152.39" x="1027.95" y="472.0986"/><text fill="#111827" font-family="Arial" font-size="14" font-weight="700" lengthAdjust="spacing" textLength="115.1514" x="1046.5693" y="487.2305">Genome Sources</text></g><!--cluster User Entry Points--><g class="cluster" data-qualified-name="User Entry Points" data-source-line="24" id="ent0004"><rect fill="none" height="190" rx="6" ry="6" style="stroke:#9CA3AF;stroke-width:1;" width="133.08" x="27.82" y="44.0986"/><text fill="#111827" font-family="Arial" font-size="14" font-weight="700" lengthAdjust="spacing" textLength="117.4756" x="35.6222" y="59.2305">User Entry Points</text></g><!--cluster API and Submission Layer--><g class="cluster" data-qualified-name="API and Submission Layer" data-source-line="29" id="ent0007"><rect fill="none" height="190" rx="6" ry="6" style="stroke:#9CA3AF;stroke-width:1;" width="968.54" x="211.8" y="44.0986"/><text fill="#111827" font-family="Arial" font-size="14" font-weight="700" lengthAdjust="spacing" textLength="176.5996" x="607.7702" y="59.2305">API and Submission Layer</text></g><!--cluster Processing Layer--><g class="cluster" data-qualified-name="Processing Layer" data-source-line="36" id="ent0012"><rect fill="none" height="190" rx="6" ry="6" style="stroke:#9CA3AF;stroke-width:1;" width="643.64" x="541.75" y="258.0986"/><text fill="#111827" font-family="Arial" font-size="14" font-weight="700" lengthAdjust="spacing" textLength="116.7236" x="805.2082" y="273.2305">Processing Layer</text></g><!--cluster Data Lake and Artifacts--><g class="cluster" data-qualified-name="Data Lake and Artifacts" data-source-line="42" id="ent0016"><rect fill="none" height="245" rx="6" ry="6" style="stroke:#9CA3AF;stroke-width:1;" width="171" x="1019.14" y="670.0986"/><text fill="#111827" font-family="Arial" font-size="14" font-weight="700" lengthAdjust="spacing" textLength="155.6064" x="1026.8368" y="685.2305">Data Lake and Artifacts</text></g><!--cluster Catalog and Query--><g class="cluster" data-qualified-name="Catalog and Query" data-source-line="48" id="ent0020"><rect fill="none" height="103" rx="6" ry="6" style="stroke:#9CA3AF;stroke-width:1;" width="521.44" x="229.31" y="666.0986"/><text fill="#111827" font-family="Arial" font-size="14" font-weight="700" lengthAdjust="spacing" textLength="124.4688" x="427.7956" y="681.2305">Catalog and Query</text></g><!--cluster Live Experience--><g class="cluster" data-qualified-name="Live Experience" data-source-line="53" id="ent0023"><rect fill="none" height="103" rx="6" ry="6" style="stroke:#9CA3AF;stroke-width:1;" width="359.9" x="7" y="258.0986"/><text fill="#111827" font-family="Arial" font-size="14" font-weight="700" lengthAdjust="spacing" textLength="106.6133" x="133.6434" y="273.2305">Live Experience</text></g><!--entity NCBI--><g class="entity" data-qualified-name="Genome Sources.NCBI" data-source-line="20" id="ent0002"><rect fill="#E5E7EB" height="36.0986" rx="6" ry="6" style="stroke:#4B5563;stroke-width:0.5;" width="97.7998" x="1055.24" y="507.0486"/><text fill="#111827" font-family="Arial" font-size="14" lengthAdjust="spacing" textLength="77.7998" x="1065.24" y="530.1805">NCBI Entrez</text></g><!--entity URLS--><g class="entity" data-qualified-name="Genome Sources.URLS" data-source-line="21" id="ent0003"><rect fill="#E5E7EB" height="52.1973" rx="6" ry="6" style="stroke:#4B5563;stroke-width:0.5;" width="120.3926" x="1043.95" y="577.9986"/><text fill="#111827" font-family="Arial" font-size="14" lengthAdjust="spacing" textLength="76.2344" x="1053.95" y="601.1305">Direct URL /</text><text fill="#111827" font-family="Arial" font-size="14" lengthAdjust="spacing" textLength="100.3926" x="1053.95" y="617.2291">alternate source</text></g><!--entity CLI--><g class="entity" data-qualified-name="User Entry Points.CLI" data-source-line="25" id="ent0005"><rect fill="#FDE68A" height="52.1973" rx="6" ry="6" style="stroke:#4B5563;stroke-width:0.5;" width="100.1582" x="43.82" y="78.9986"/><text fill="#111827" font-family="Arial" font-size="14" lengthAdjust="spacing" textLength="29.5654" x="53.82" y="102.1305">CLI /</text><text fill="#111827" font-family="Arial" font-size="14" lengthAdjust="spacing" textLength="80.1582" x="53.82" y="118.2291">Python client</text></g><!--entity DASH--><g class="entity" data-qualified-name="User Entry Points.DASH" data-source-line="26" id="ent0006"><rect fill="#FDE68A" height="52.1973" rx="6" ry="6" style="stroke:#4B5563;stroke-width:0.5;" width="89.2549" x="49.27" y="165.9986"/><text fill="#111827" font-family="Arial" font-size="14" lengthAdjust="spacing" textLength="69.2549" x="59.27" y="189.1305">CloudFront</text><text fill="#111827" font-family="Arial" font-size="14" lengthAdjust="spacing" textLength="66.165" x="59.27" y="205.2291">dashboard</text></g><!--entity APIGW--><g class="entity" data-qualified-name="API and Submission Layer.APIGW" data-source-line="30" id="ent0008"><rect fill="#FCA5A5" height="36.0986" rx="6" ry="6" style="stroke:#4B5563;stroke-width:0.5;" width="156.9512" x="227.8" y="182.0486"/><text fill="#111827" font-family="Arial" font-size="14" lengthAdjust="spacing" textLength="136.9512" x="237.8" y="205.1805">Amazon API Gateway</text></g><!--entity WEB--><g class="entity" data-qualified-name="API and Submission Layer.WEB" data-source-line="31" id="ent0009"><rect fill="#FCA5A5" height="36.0986" rx="6" ry="6" style="stroke:#4B5563;stroke-width:0.5;" width="129.7236" x="610.08" y="182.0486"/><text fill="#111827" font-family="Arial" font-size="14" lengthAdjust="spacing" textLength="109.7236" x="620.08" y="205.1805">Web API Lambda</text></g><!--entity SQS--><g class="entity" data-qualified-name="API and Submission Layer.SQS" data-source-line="32" id="ent0010"><rect fill="#FCA5A5" height="52.1973" rx="6" ry="6" style="stroke:#4B5563;stroke-width:0.5;" width="104.8135" x="1051.74" y="78.9986"/><text fill="#111827" font-family="Arial" font-size="14" lengthAdjust="spacing" textLength="84.8135" x="1061.74" y="102.1305">Amazon SQS</text><text fill="#111827" font-family="Arial" font-size="14" lengthAdjust="spacing" textLength="61.5029" x="1061.74" y="118.2291">job queue</text></g><!--entity OPS--><g class="entity" data-qualified-name="API and Submission Layer.OPS" data-source-line="33" id="ent0011"><rect fill="#FCA5A5" height="52.1973" rx="6" ry="6" style="stroke:#4B5563;stroke-width:0.5;" width="120.3926" x="1043.95" y="165.9986"/><text fill="#111827" font-family="Arial" font-size="14" lengthAdjust="spacing" textLength="71.5791" x="1053.95" y="189.1305">DynamoDB</text><text fill="#111827" font-family="Arial" font-size="14" lengthAdjust="spacing" textLength="100.3926" x="1053.95" y="205.2291">operations store</text></g><!--entity INGEST--><g class="entity" data-qualified-name="Processing Layer.INGEST" data-source-line="37" id="ent0013"><rect fill="#A7F3D0" height="52.1973" rx="6" ry="6" style="stroke:#4B5563;stroke-width:0.5;" width="142.9854" x="603.45" y="292.9986"/><text fill="#111827" font-family="Arial" font-size="14" lengthAdjust="spacing" textLength="122.9854" x="613.45" y="316.1305">Sequence ingestion</text><text fill="#111827" font-family="Arial" font-size="14" lengthAdjust="spacing" textLength="50.5928" x="613.45" y="332.2291">Lambda</text></g><!--entity BATCH--><g class="entity" data-qualified-name="Processing Layer.BATCH" data-source-line="38" id="ent0014"><rect fill="#A7F3D0" height="52.1973" rx="6" ry="6" style="stroke:#4B5563;stroke-width:0.5;" width="234.3955" x="557.75" y="379.9986"/><text fill="#111827" font-family="Arial" font-size="14" lengthAdjust="spacing" textLength="143.1787" x="567.75" y="403.1305">AWS Batch on Fargate</text><text fill="#111827" font-family="Arial" font-size="14" lengthAdjust="spacing" textLength="214.3955" x="567.75" y="419.2291">Python orchestration + C++ parser</text></g><!--entity LOGS--><g class="entity" data-qualified-name="Processing Layer.LOGS" data-source-line="39" id="ent0015"><rect fill="#A7F3D0" height="36.0986" rx="6" ry="6" style="stroke:#4B5563;stroke-width:0.5;" width="130.5029" x="1038.89" y="358.0486"/><text fill="#111827" font-family="Arial" font-size="14" lengthAdjust="spacing" textLength="110.5029" x="1048.89" y="381.1805">CloudWatch Logs</text></g><!--entity TEMP--><g class="entity" data-qualified-name="Data Lake and Artifacts.TEMP" data-source-line="43" id="ent0017"><rect fill="#93C5FD" height="36.0986" rx="6" ry="6" style="stroke:#4B5563;stroke-width:0.5;" width="117.2754" x="1045.5" y="705.0486"/><text fill="#111827" font-family="Arial" font-size="14" lengthAdjust="spacing" textLength="97.2754" x="1055.5" y="728.1805">S3 temp bucket</text></g><!--entity OUT--><g class="entity" data-qualified-name="Data Lake and Artifacts.OUT" data-source-line="44" id="ent0018"><rect fill="#93C5FD" height="36.0986" rx="6" ry="6" style="stroke:#4B5563;stroke-width:0.5;" width="125.0752" x="1041.6" y="776.0486"/><text fill="#111827" font-family="Arial" font-size="14" lengthAdjust="spacing" textLength="105.0752" x="1051.6" y="799.1805">S3 output bucket</text></g><!--entity ATHRES--><g class="entity" data-qualified-name="Data Lake and Artifacts.ATHRES" data-source-line="45" id="ent0019"><rect fill="#93C5FD" height="52.1973" rx="6" ry="6" style="stroke:#4B5563;stroke-width:0.5;" width="106.3721" x="1050.96" y="846.9986"/><text fill="#111827" font-family="Arial" font-size="14" lengthAdjust="spacing" textLength="65.3857" x="1060.96" y="870.1305">S3 Athena</text><text fill="#111827" font-family="Arial" font-size="14" lengthAdjust="spacing" textLength="86.3721" x="1060.96" y="886.2291">results bucket</text></g><!--entity GLUE--><g class="entity" data-qualified-name="Catalog and Query.GLUE" data-source-line="49" id="ent0021"><rect fill="#DDD6FE" height="52.1973" rx="6" ry="6" style="stroke:#4B5563;stroke-width:0.5;" width="121.9307" x="245.31" y="700.9986"/><text fill="#111827" font-family="Arial" font-size="14" lengthAdjust="spacing" textLength="65.3516" x="255.31" y="724.1305">AWS Glue</text><text fill="#111827" font-family="Arial" font-size="14" lengthAdjust="spacing" textLength="101.9307" x="255.31" y="740.2291">catalog / crawler</text></g><!--entity ATHENA--><g class="entity" data-qualified-name="Catalog and Query.ATHENA" data-source-line="50" id="ent0022"><rect fill="#DDD6FE" height="36.0986" rx="6" ry="6" style="stroke:#4B5563;stroke-width:0.5;" width="119.6201" x="615.13" y="705.0486"/><text fill="#111827" font-family="Arial" font-size="14" lengthAdjust="spacing" textLength="99.6201" x="625.13" y="728.1805">Amazon Athena</text></g><!--entity CF--><g class="entity" data-qualified-name="Live Experience.CF" data-source-line="54" id="ent0024"><rect fill="#FBCFE8" height="52.1973" rx="6" ry="6" style="stroke:#4B5563;stroke-width:0.5;" width="89.2549" x="261.64" y="292.9986"/><text fill="#111827" font-family="Arial" font-size="14" lengthAdjust="spacing" textLength="69.2549" x="271.64" y="316.1305">CloudFront</text><text fill="#111827" font-family="Arial" font-size="14" lengthAdjust="spacing" textLength="59.9238" x="271.64" y="332.2291">static app</text></g><!--entity DASHAPI--><g class="entity" data-qualified-name="Live Experience.DASHAPI" data-source-line="55" id="ent0025"><rect fill="#FBCFE8" height="52.1973" rx="6" ry="6" style="stroke:#4B5563;stroke-width:0.5;" width="141.7959" x="23" y="292.9986"/><text fill="#111827" font-family="Arial" font-size="14" lengthAdjust="spacing" textLength="121.7959" x="33" y="316.1305">Dashboard status +</text><text fill="#111827" font-family="Arial" font-size="14" lengthAdjust="spacing" textLength="119.8135" x="33" y="332.2291">chromosome views</text></g><!--link CLI to APIGW--><g class="link" data-entity-1="ent0005" data-entity-2="ent0008" data-link-type="dependency" data-source-line="58" id="lnk26"><path d="M144.22,127.3686 C180.78,143.8786 225.4535,164.0498 259.8235,179.5798" fill="none" id="CLI-to-APIGW" style="stroke:#374151;stroke-width:1;"/><polygon fill="#374151" points="264.38,181.6386,257.8254,174.2876,259.8235,179.5798,254.5313,181.5779,264.38,181.6386" style="stroke:#374151;stroke-width:1;stroke-linejoin:miter;stroke-miterlimit:10;"/></g><!--link DASH to CF--><g class="link" data-entity-1="ent0006" data-entity-2="ent0024" data-link-type="dependency" data-source-line="59" id="lnk27"><path d="M138.74,218.5686 C174.75,240.2986 221.2097,268.3543 257.1997,290.0843" fill="none" id="DASH-to-CF" style="stroke:#374151;stroke-width:1;"/><polygon fill="#374151" points="261.48,292.6686,255.8429,284.5925,257.1997,290.0843,251.7079,291.441,261.48,292.6686" style="stroke:#374151;stroke-width:1;stroke-linejoin:miter;stroke-miterlimit:10;"/></g><!--link CF to APIGW--><g class="link" data-entity-1="ent0024" data-entity-2="ent0008" data-link-type="dependency" data-source-line="60" id="lnk28"><path d="M306.27,292.5986 C306.27,267.9086 306.27,248.2186 306.27,223.5286" fill="none" id="CF-to-APIGW" style="stroke:#374151;stroke-width:1;"/><polygon fill="#374151" points="306.27,218.5286,302.27,227.5286,306.27,223.5286,310.27,227.5286,306.27,218.5286" style="stroke:#374151;stroke-width:1;stroke-linejoin:miter;stroke-miterlimit:10;"/></g><!--link APIGW to WEB--><g class="link" data-entity-1="ent0008" data-entity-2="ent0009" data-link-type="dependency" data-source-line="61" id="lnk29"><path d="M385.03,200.0986 C451.88,200.0986 542.14,200.0986 604.73,200.0986" fill="none" id="APIGW-to-WEB" style="stroke:#374151;stroke-width:1;"/><polygon fill="#374151" points="609.73,200.0986,600.73,196.0986,604.73,200.0986,600.73,204.0986,609.73,200.0986" style="stroke:#374151;stroke-width:1;stroke-linejoin:miter;stroke-miterlimit:10;"/></g><!--link WEB to SQS--><g class="link" data-entity-1="ent0009" data-entity-2="ent0010" data-link-type="dependency" data-source-line="62" id="lnk30"><path d="M739.9,185.8786 C824.86,166.9786 968.4093,135.0642 1046.6393,117.6642" fill="none" id="WEB-to-SQS" style="stroke:#374151;stroke-width:1;"/><polygon fill="#374151" points="1051.52,116.5786,1041.8662,114.6281,1046.6393,117.6642,1043.6031,122.4373,1051.52,116.5786" style="stroke:#374151;stroke-width:1;stroke-linejoin:miter;stroke-miterlimit:10;"/></g><!--link WEB to OPS--><g class="link" data-entity-1="ent0009" data-entity-2="ent0011" data-link-type="dependency" data-source-line="63" id="lnk31"><path d="M739.9,208.5886 C822.07,211.7186 958.6156,209.3731 1038.5956,203.0431" fill="none" id="WEB-to-OPS" style="stroke:#374151;stroke-width:1;"/><polygon fill="#374151" points="1043.58,202.6486,1034.2925,199.3712,1038.5956,203.0431,1034.9236,207.3462,1043.58,202.6486" style="stroke:#374151;stroke-width:1;stroke-linejoin:miter;stroke-miterlimit:10;"/></g><!--link OPS to WEB--><g class="link" data-entity-1="ent0011" data-entity-2="ent0009" data-link-type="dependency" data-source-line="84" id="lnk49"><path d="M1043.58,183.7786 C963.6,180.4386 827.0558,182.6324 744.8858,188.8324" fill="none" id="OPS-to-WEB" style="stroke:#374151;stroke-width:1;"/><polygon fill="#374151" points="739.9,189.2086,749.1754,192.5201,744.8858,188.8324,748.5735,184.5428,739.9,189.2086" style="stroke:#374151;stroke-width:1;stroke-linejoin:miter;stroke-miterlimit:10;"/></g><!--link WEB to ATHENA--><g class="link" data-entity-1="ent0009" data-entity-2="ent0022" data-link-type="dependency" data-source-line="64" id="lnk32"><path d="M609.59,209.3786 C559.05,220.3586 492.3,244.0386 459.25,294.5986 C426.18,345.1886 440.37,373.1786 459.25,430.5986 C498.77,550.7786 605.0297,658.7224 650.8397,701.3524" fill="none" id="WEB-to-ATHENA" style="stroke:#374151;stroke-width:1;"/><polygon fill="#374151" points="654.5,704.7586,650.6364,695.6992,650.8397,701.3524,645.1865,701.5557,654.5,704.7586" style="stroke:#374151;stroke-width:1;stroke-linejoin:miter;stroke-miterlimit:10;"/></g><!--link ATHENA to WEB--><g class="link" data-entity-1="ent0022" data-entity-2="ent0009" data-link-type="dependency" data-source-line="83" id="lnk48"><path d="M654.5,704.7586 C608.69,662.1286 498.77,550.7786 459.25,430.5986 C440.37,373.1786 426.18,345.1886 459.25,294.5986 C492.3,244.0386 554.164,221.4201 604.704,210.4401" fill="none" id="ATHENA-to-WEB" style="stroke:#374151;stroke-width:1;"/><polygon fill="#374151" points="609.59,209.3786,599.946,207.3805,604.704,210.4401,601.6444,215.1982,609.59,209.3786" style="stroke:#374151;stroke-width:1;stroke-linejoin:miter;stroke-miterlimit:10;"/></g><!--link SQS to INGEST--><g class="link" data-entity-1="ent0010" data-entity-2="ent0013" data-link-type="dependency" data-source-line="66" id="lnk33"><path d="M1051.28,120.2986 C1036.58,126.7986 1021.73,135.8086 1011.14,148.0986 C1002.98,157.5786 1011.42,165.7086 1003.14,175.0986 C993.81,185.6986 836.9845,252.0835 744.4345,290.6935" fill="none" id="SQS-to-INGEST" style="stroke:#374151;stroke-width:1;"/><polygon fill="#374151" points="739.82,292.6186,749.6663,292.8451,744.4345,290.6935,746.5861,285.4618,739.82,292.6186" style="stroke:#374151;stroke-width:1;stroke-linejoin:miter;stroke-miterlimit:10;"/></g><!--link INGEST to NCBI--><g class="link" data-entity-1="ent0013" data-entity-2="ent0002" data-link-type="dependency" data-source-line="67" id="lnk34"><path d="M746.7,341.1586 C762.1,347.0886 778.01,354.1086 792.14,362.0986 C807.01,370.4986 807.3,377.6586 822.14,386.0986 C896.84,428.5786 927.25,413.7786 1003.14,454.0986 C1031.53,469.1886 1057.2997,488.0752 1076.8797,503.5752" fill="none" id="INGEST-to-NCBI" style="stroke:#374151;stroke-width:1;"/><polygon fill="#374151" points="1080.8,506.6786,1076.2262,497.9562,1076.8797,503.5752,1071.2607,504.2287,1080.8,506.6786" style="stroke:#374151;stroke-width:1;stroke-linejoin:miter;stroke-miterlimit:10;"/><text fill="#000000" font-family="Arial" font-size="13" lengthAdjust="spacing" textLength="179.9116" x="823.14" y="383.2925">download chromosome FASTA</text></g><!--link INGEST to URLS--><g class="link" data-entity-1="ent0013" data-entity-2="ent0003" data-link-type="dependency" data-source-line="68" id="lnk35"><path d="M746.7,333.2186 C763.53,339.5786 780.09,348.7886 792.14,362.0986 C827.59,401.2586 783.42,441.1686 822.14,477.0986 C882.09,532.7186 946.04,451.5686 1003.14,510.0986 C1019.16,526.5186 997.36,542.7586 1011.14,561.0986 C1019.41,572.0886 1026.7015,578.1353 1039.0715,584.3453" fill="none" id="INGEST-to-URLS" style="stroke:#374151;stroke-width:1;"/><polygon fill="#374151" points="1043.54,586.5886,1037.2913,578.9759,1039.0715,584.3453,1033.702,586.1255,1043.54,586.5886" style="stroke:#374151;stroke-width:1;stroke-linejoin:miter;stroke-miterlimit:10;"/><text fill="#000000" font-family="Arial" font-size="13" lengthAdjust="spacing" textLength="88.1689" x="868.64" y="474.2925">optional source</text></g><!--link INGEST to TEMP--><g class="link" data-entity-1="ent0013" data-entity-2="ent0017" data-link-type="dependency" data-source-line="69" id="lnk36"><path d="M746.87,332.6986 C763.8,339.0586 780.36,348.3986 792.14,362.0986 C835.05,411.9986 776.42,459.7686 822.14,507.0986 C879.66,566.6386 949.29,488.2186 1003.14,551.0986 C1016.92,567.1886 1001.38,627.2986 1011.14,646.0986 C1024.2,671.2386 1045.1508,688.6844 1065.8508,702.0644" fill="none" id="INGEST-to-TEMP" style="stroke:#374151;stroke-width:1;"/><polygon fill="#374151" points="1070.05,704.7786,1064.6629,696.5337,1065.8508,702.0644,1060.3201,703.2523,1070.05,704.7786" style="stroke:#374151;stroke-width:1;stroke-linejoin:miter;stroke-miterlimit:10;"/></g><!--link INGEST to OUT--><g class="link" data-entity-1="ent0013" data-entity-2="ent0018" data-link-type="dependency" data-source-line="70" id="lnk37"><path d="M746.86,331.9686 C764,338.3386 780.67,347.8686 792.14,362.0986 C851.87,436.1886 756.2,505.4886 822.14,574.0986 C878.8,633.0586 949.13,545.7086 1003.14,607.0986 C1025.48,632.4986 991.22,731.7686 1011.14,759.0986 C1018.69,769.4586 1025.134,774.7566 1036.944,779.8866" fill="none" id="INGEST-to-OUT" style="stroke:#374151;stroke-width:1;"/><polygon fill="#374151" points="1041.53,781.8786,1034.8688,774.6241,1036.944,779.8866,1031.6815,781.9617,1041.53,781.8786" style="stroke:#374151;stroke-width:1;stroke-linejoin:miter;stroke-miterlimit:10;"/><text fill="#000000" font-family="Arial" font-size="13" lengthAdjust="spacing" textLength="104.0825" x="860.64" y="571.2925">sequence parquet</text></g><!--link INGEST to OPS--><g class="link" data-entity-1="ent0013" data-entity-2="ent0011" data-link-type="dependency" data-source-line="71" id="lnk38"><path d="M746.8,316.4486 C814.86,311.7986 919.41,299.0286 1003.14,264.0986 C1029.4,253.1386 1051.5287,237.3394 1070.4187,221.5994" fill="none" id="INGEST-to-OPS" style="stroke:#374151;stroke-width:1;"/><polygon fill="#374151" points="1074.26,218.3986,1064.7851,221.0869,1070.4187,221.5994,1069.9063,227.233,1074.26,218.3986" style="stroke:#374151;stroke-width:1;stroke-linejoin:miter;stroke-miterlimit:10;"/></g><!--link INGEST to LOGS--><g class="link" data-entity-1="ent0013" data-entity-2="ent0015" data-link-type="dependency" data-source-line="72" id="lnk39"><path d="M746.49,328.5086 C827.66,339.3386 954.8739,356.3174 1033.4939,366.8074" fill="none" id="INGEST-to-LOGS" style="stroke:#374151;stroke-width:1;"/><polygon fill="#374151" points="1038.45,367.4686,1030.0581,362.3135,1033.4939,366.8074,1029,370.2432,1038.45,367.4686" style="stroke:#374151;stroke-width:1;stroke-linejoin:miter;stroke-miterlimit:10;"/></g><!--link WEB to BATCH--><g class="link" data-entity-1="ent0009" data-entity-2="ent0014" data-link-type="dependency" data-source-line="74" id="lnk40"><path d="M609.74,214.6686 C527.83,236.0286 403.59,280.4686 452.86,345.0986 C477.59,377.5286 512.9656,392.8355 552.4756,400.6755" fill="none" id="WEB-to-BATCH" style="stroke:#374151;stroke-width:1;"/><polygon fill="#374151" points="557.38,401.6486,549.3307,395.9734,552.4756,400.6755,547.7736,403.8204,557.38,401.6486" style="stroke:#374151;stroke-width:1;stroke-linejoin:miter;stroke-miterlimit:10;"/><text fill="#000000" font-family="Arial" font-size="13" lengthAdjust="spacing" textLength="109.0972" x="415.75" y="342.2925">submit full analysis</text></g><!--link BATCH to OUT--><g class="link" data-entity-1="ent0014" data-entity-2="ent0018" data-link-type="dependency" data-source-line="75" id="lnk41"><path d="M681.64,432.4786 C695.42,489.9686 735.96,627.3886 822.14,702.0986 C855.21,730.7586 964.0136,760.8687 1036.2536,778.5687" fill="none" id="BATCH-to-OUT" style="stroke:#374151;stroke-width:1;"/><polygon fill="#374151" points="1041.11,779.7586,1033.3205,773.7318,1036.2536,778.5687,1031.4167,781.5019,1041.11,779.7586" style="stroke:#374151;stroke-width:1;stroke-linejoin:miter;stroke-miterlimit:10;"/><text fill="#000000" font-family="Arial" font-size="13" lengthAdjust="spacing" textLength="135.8843" x="845.14" y="684.2925">read landed sequence /</text><text fill="#000000" font-family="Arial" font-size="13" lengthAdjust="spacing" textLength="73.7026" x="876.2308" y="699.2412">write outputs</text></g><!--link BATCH to TEMP--><g class="link" data-entity-1="ent0014" data-entity-2="ent0017" data-link-type="dependency" data-source-line="76" id="lnk42"><path d="M685.47,432.4986 C703.96,479.7186 749.39,578.2386 822.14,627.0986 C890.23,672.8186 926.62,633.5586 1003.14,663.0986 C1030.34,673.5986 1054.4634,688.4307 1073.9734,701.8807" fill="none" id="BATCH-to-TEMP" style="stroke:#374151;stroke-width:1;"/><polygon fill="#374151" points="1078.09,704.7186,1072.9505,696.3171,1073.9734,701.8807,1068.4098,702.9036,1078.09,704.7186" style="stroke:#374151;stroke-width:1;stroke-linejoin:miter;stroke-miterlimit:10;"/><text fill="#000000" font-family="Arial" font-size="13" lengthAdjust="spacing" textLength="133.6563" x="846.14" y="624.2925">temporary working files</text></g><!--link BATCH to OPS--><g class="link" data-entity-1="ent0014" data-entity-2="ent0011" data-link-type="dependency" data-source-line="77" id="lnk43"><path d="M792.23,380.3686 C880.13,359.8886 988.17,332.0986 1003.14,316.0986 C1015.23,303.1786 1002.45,292.5086 1011.14,277.0986 C1024.18,253.9886 1041.7624,236.7154 1060.7024,221.6954" fill="none" id="BATCH-to-OPS" style="stroke:#374151;stroke-width:1;"/><polygon fill="#374151" points="1064.62,218.5886,1055.0828,221.0468,1060.7024,221.6954,1060.0537,227.315,1064.62,218.5886" style="stroke:#374151;stroke-width:1;stroke-linejoin:miter;stroke-miterlimit:10;"/></g><!--link BATCH to LOGS--><g class="link" data-entity-1="ent0014" data-entity-2="ent0015" data-link-type="dependency" data-source-line="78" id="lnk44"><path d="M792.4,397.9186 C871.58,392.3586 968.4023,385.5588 1033.4923,380.9888" fill="none" id="BATCH-to-LOGS" style="stroke:#374151;stroke-width:1;"/><polygon fill="#374151" points="1038.48,380.6386,1029.2219,377.2788,1033.4923,380.9888,1029.7823,385.2592,1038.48,380.6386" style="stroke:#374151;stroke-width:1;stroke-linejoin:miter;stroke-miterlimit:10;"/></g><!--link OUT to GLUE--><g class="link" data-entity-1="ent0018" data-entity-2="ent0021" data-link-type="dependency" data-source-line="80" id="lnk45"><path d="M1041.5,791.9086 C936.9,787.8286 718.01,777.7486 533.75,759.0986 C477.25,753.3786 418.1502,744.8399 372.6102,737.7299" fill="none" id="OUT-to-GLUE" style="stroke:#374151;stroke-width:1;"/><polygon fill="#374151" points="367.67,736.9586,375.9452,742.2991,372.6102,737.7299,377.1793,734.3948,367.67,736.9586" style="stroke:#374151;stroke-width:1;stroke-linejoin:miter;stroke-miterlimit:10;"/></g><!--link GLUE to ATHENA--><g class="link" data-entity-1="ent0021" data-entity-2="ent0022" data-link-type="dependency" data-source-line="81" id="lnk46"><path d="M367.41,726.4386 C435.78,725.6986 541.6903,724.543 609.6903,723.803" fill="none" id="GLUE-to-ATHENA" style="stroke:#374151;stroke-width:1;"/><polygon fill="#374151" points="614.69,723.7486,605.647,719.8468,609.6903,723.803,605.7341,727.8463,614.69,723.7486" style="stroke:#374151;stroke-width:1;stroke-linejoin:miter;stroke-miterlimit:10;"/></g><!--link ATHENA to ATHRES--><g class="link" data-entity-1="ent0022" data-entity-2="ent0019" data-link-type="dependency" data-source-line="82" id="lnk47"><path d="M728.76,741.6386 C811.02,770.5286 964.0824,824.2721 1046.0724,853.0621" fill="none" id="ATHENA-to-ATHRES" style="stroke:#374151;stroke-width:1;"/><polygon fill="#374151" points="1050.79,854.7186,1043.6235,847.9628,1046.0724,853.0621,1040.9731,855.5109,1050.79,854.7186" style="stroke:#374151;stroke-width:1;stroke-linejoin:miter;stroke-miterlimit:10;"/></g><!--link WEB to DASHAPI--><g class="link" data-entity-1="ent0009" data-entity-2="ent0025" data-link-type="dependency" data-source-line="85" id="lnk50"><path d="M621.75,218.6386 C566.77,239.7486 479.35,277.9186 414.75,328.0986 C398.57,340.6686 403.36,354.5386 384.75,363.0986 C309.03,397.9286 216.213,372.079 155.823,347.569" fill="none" id="WEB-to-DASHAPI" style="stroke:#374151;stroke-width:1;"/><polygon fill="#374151" points="151.19,345.6886,158.0251,352.7796,155.823,347.569,161.0336,345.3669,151.19,345.6886" style="stroke:#374151;stroke-width:1;stroke-linejoin:miter;stroke-miterlimit:10;"/></g><!--link DASHAPI to CF--><g class="link" data-entity-1="ent0025" data-entity-2="ent0024" data-link-type="dependency" data-source-line="86" id="lnk51"><path d="M165.24,319.0986 C197.01,319.0986 228.57,319.0986 256.36,319.0986" fill="none" id="DASHAPI-to-CF" style="stroke:#374151;stroke-width:1;"/><polygon fill="#374151" points="261.36,319.0986,252.36,315.0986,256.36,319.0986,252.36,323.0986,261.36,319.0986" style="stroke:#374151;stroke-width:1;stroke-linejoin:miter;stroke-miterlimit:10;"/></g><g class="legend" data-source-line="88"><rect fill="none" height="126.6904" rx="7.5" ry="7.5" style="stroke:#000000;stroke-width:1;" width="230.2266" x="954.9134" y="935.0986"/><text fill="#000000" font-family="Arial" font-size="14" font-weight="700" lengthAdjust="spacing" textLength="36.5518" x="963.8031" y="955.2305">Color</text><text fill="#000000" font-family="Arial" font-size="14" font-weight="700" lengthAdjust="spacing" textLength="37.3584" x="1008.1341" y="955.2305">Layer</text><rect fill="#FDE68A" height="16.0986" style="stroke:none;stroke-width:1;" width="44.3311" x="959.9134" y="958.1973"/><text fill="#000000" font-family="Arial" font-size="14" lengthAdjust="spacing" textLength="3.8896" x="959.9134" y="971.3291">&#160;</text><text fill="#000000" font-family="Arial" font-size="14" lengthAdjust="spacing" textLength="105.8203" x="1008.1341" y="971.3291">User entry points</text><rect fill="#FCA5A5" height="16.0986" style="stroke:none;stroke-width:1;" width="44.3311" x="959.9134" y="974.2959"/><text fill="#000000" font-family="Arial" font-size="14" lengthAdjust="spacing" textLength="3.8896" x="959.9134" y="987.4277">&#160;</text><text fill="#000000" font-family="Arial" font-size="14" lengthAdjust="spacing" textLength="123.7305" x="1008.1341" y="987.4277">API and submission</text><rect fill="#A7F3D0" height="16.0986" style="stroke:none;stroke-width:1;" width="44.3311" x="959.9134" y="990.3945"/><text fill="#000000" font-family="Arial" font-size="14" lengthAdjust="spacing" textLength="3.8896" x="959.9134" y="1003.5264">&#160;</text><text fill="#000000" font-family="Arial" font-size="14" lengthAdjust="spacing" textLength="69.2549" x="1008.1341" y="1003.5264">Processing</text><rect fill="#93C5FD" height="16.0986" style="stroke:none;stroke-width:1;" width="44.3311" x="959.9134" y="1006.4932"/><text fill="#000000" font-family="Arial" font-size="14" lengthAdjust="spacing" textLength="3.8896" x="959.9134" y="1019.625">&#160;</text><text fill="#000000" font-family="Arial" font-size="14" lengthAdjust="spacing" textLength="49.0342" x="1008.1341" y="1019.625">Storage</text><rect fill="#DDD6FE" height="16.0986" style="stroke:none;stroke-width:1;" width="44.3311" x="959.9134" y="1022.5918"/><text fill="#000000" font-family="Arial" font-size="14" lengthAdjust="spacing" textLength="3.8896" x="959.9134" y="1035.7236">&#160;</text><text fill="#000000" font-family="Arial" font-size="14" lengthAdjust="spacing" textLength="114.4131" x="1008.1341" y="1035.7236">Catalog and query</text><rect fill="#FBCFE8" height="16.0986" style="stroke:none;stroke-width:1;" width="44.3311" x="959.9134" y="1038.6904"/><text fill="#000000" font-family="Arial" font-size="14" lengthAdjust="spacing" textLength="3.8896" x="959.9134" y="1051.8223">&#160;</text><text fill="#000000" font-family="Arial" font-size="14" lengthAdjust="spacing" textLength="168.1162" x="1008.1341" y="1051.8223">Live dashboard experience</text><line style="stroke:#000000;stroke-width:1;" x1="959.9134" x2="1180.14" y1="942.0986" y2="942.0986"/><line style="stroke:#000000;stroke-width:1;" x1="959.9134" x2="1180.14" y1="958.1973" y2="958.1973"/><line style="stroke:#000000;stroke-width:1;" x1="959.9134" x2="1180.14" y1="974.2959" y2="974.2959"/><line style="stroke:#000000;stroke-width:1;" x1="959.9134" x2="1180.14" y1="990.3945" y2="990.3945"/><line style="stroke:#000000;stroke-width:1;" x1="959.9134" x2="1180.14" y1="1006.4932" y2="1006.4932"/><line style="stroke:#000000;stroke-width:1;" x1="959.9134" x2="1180.14" y1="1022.5918" y2="1022.5918"/><line style="stroke:#000000;stroke-width:1;" x1="959.9134" x2="1180.14" y1="1038.6904" y2="1038.6904"/><line style="stroke:#000000;stroke-width:1;" x1="959.9134" x2="1180.14" y1="1054.7891" y2="1054.7891"/><line style="stroke:#000000;stroke-width:1;" x1="959.9134" x2="959.9134" y1="942.0986" y2="1054.7891"/><line style="stroke:#000000;stroke-width:1;" x1="1004.2445" x2="1004.2445" y1="942.0986" y2="1054.7891"/><line style="stroke:#000000;stroke-width:1;" x1="1180.14" x2="1180.14" y1="942.0986" y2="1054.7891"/></g><?plantuml-src XLPDSnev4BtFh-WoHvShImYsrvLDrNnYgeXDFBYuS14p0hG8YKYQi6IT_vwMPXY4OMivZTHVhwNtMXXcE8M8oU441bJ83OKnsrBE18KRY8WfLZSPKzh0IoKCsz0Wu7HXm4XGRBaoK3952yEa2FIQYIrHP0DpKgoNIbQYZ2MN2ZgP-taUUaLAkMDY2Gl2DVKi9LsGYfjC2lD444se6E6UVOkvoPBcPe-uRMaYbjnFqEx1lm70Iur22QgW-n4t8gbAgXfSdw9-_xQ7kxPSizVjTky_tWM_pckwX2VnVyPXByp-DpvKIkuQS-_kKxVV3O93pglcr7DPgOBgArVasCFLKnmD8HL6qPzNG3IuTIVjftTfTEgPk9k0rvSHV9W9mWrLWXWAscLsmMZBs-1V7eXNZUTZg-nXB9amvpZYqT2c7U_DIWeeEAF2k9pMqCcIzFO-V1V1PLLc2azc9agYLtD9LEb2aZ1_R6Dy6E5u24IKa5Vp3TCQMGKZigVg34su8J_HQFq7sEEEx5rYN0-cc3aE-s7_D69AvyvzH3RpaZZlQHfTzcsovz_ocVXRpk5xHQlw077hSaYo5sGZasWcv9OgOWMXGHkfwhZdyJ7ERtYi95wwjaAut6XEiRWeAA0BrJRjJ7Wj39y6QJw1JdYNzP8_tdKnpMi10_QI4RN4WselKAfYXVbgf70DyVKrqbnf2m7pHk4aVhoSrbthrEKToQLsxgFdGTvw-_qbn13iR4tTjORAi0KfBh0hxu6XcotCgs9DQrvDqgzZL5WlxcV9cREipBOolllpw-G_lKEpeeBCXA8QHulsmyB9uqkQjv4-zXYnSxbqoBzLLEtFMOWdFE0LdchH-7w0Gf4TRqvnC7fDePCaoMsMNkQl0tO0aZw5hRSFPCH-K4Z_GLunIuLpQNf2qmPlj02otTRYp91sKPobz-_eUj0Zs81AmpNsi59o8xKTHZyOtUbMgbOsXoo8omh-vkPBBRR0QTakuop0QaT3hKMxHfq5Lcls6mNKVgCesk-w_I2m0hFhcjX1ms-xumRV0-2p8RWa9NXmip2VXBwlctCF8BUMtOGt8z3tiEporvO-3w0FQaCfu9SvyK2qtj9IFcZXrth117Pm6LXKd2Dl2DzhfeFQUAoYACBdI2jQ7YlYRDqfXkEwfhOVvPJmu0GY5S4HlPDgxTvEnkb9UeHuNDK8RKcxibmC726zusv8r-oW4FmTUsrsRhs_meOImO4QpUNZ_u8bHQculmN1srzGFtZuuIORl0LldvkP_-KDt8D3tOEpTGzEOtSZ4ks7bq0VNmBdKCyOTF0cfpFK0aP3ZaFNoiRjrch2NL_CtwsOctgErMXt6cjVAQ2jsj0Fkwfx2tu3?></g></svg>